<?xml version="1.0" encoding="UTF-8"?>
<!DOCTYPE svg PUBLIC "-//W3C//DTD SVG 1.1//EN" "http://www.w3.org/Graphics/SVG/1.1/DTD/svg11.dtd">
<svg xmlns="http://www.w3.org/2000/svg" xmlns:xlink="http://www.w3.org/1999/xlink" version="1.1" width="222" height="218" viewBox="-0.5 -0.5 222 218"><defs><filter id="dropShadow"><feGaussianBlur in="SourceAlpha" stdDeviation="1.7" result="blur"/><feOffset in="blur" dx="3" dy="3" result="offsetBlur"/><feFlood flood-color="#3D4574" flood-opacity="0.4" result="offsetColor"/><feComposite in="offsetColor" in2="offsetBlur" operator="in" result="offsetBlur"/><feBlend in="SourceGraphic" in2="offsetBlur"/></filter></defs><g filter="url(#dropShadow)"><rect x="15" y="11" width="200" height="200" fill="#ffff88" stroke="#36393d" pointer-events="all"/><rect x="1" y="1" width="200" height="200" fill="#dae8fc" stroke="#6c8ebf" stroke-width="2" pointer-events="all"/><path d="M 66 71 L 66 91 L 96 91 L 96 87.37" fill="none" stroke="#000000" stroke-miterlimit="10" pointer-events="stroke"/><path d="M 96 82.12 L 99.5 89.12 L 96 87.37 L 92.5 89.12 Z" fill="#000000" stroke="#000000" stroke-miterlimit="10" pointer-events="all"/><rect x="21" y="31" width="90" height="40" fill="#f8cecc" stroke="#b85450" stroke-width="2" pointer-events="all"/><path d="M 30 31 L 30 71 M 102 31 L 102 71" fill="none" stroke="#b85450" stroke-width="2" stroke-miterlimit="10" pointer-events="all"/><rect x="21" y="81" width="150" height="40" fill="#f8cecc" stroke="#b85450" stroke-width="2" pointer-events="all"/><path d="M 36 81 L 36 121 M 156 81 L 156 121" fill="none" stroke="#b85450" stroke-width="2" stroke-miterlimit="10" pointer-events="all"/><rect x="21" y="131" width="150" height="40" fill="#f8cecc" stroke="#b85450" stroke-width="2" pointer-events="all"/><path d="M 36 131 L 36 171 M 156 131 L 156 171" fill="none" stroke="#b85450" stroke-width="2" stroke-miterlimit="10" pointer-events="all"/><ellipse cx="151" cy="51" rx="20" ry="20" fill="#e1d5e7" stroke="#9673a6" pointer-events="all"/></g></svg>